<?xml version="1.0" encoding="UTF-8"?>
<svg version="1.1" xmlns="http://www.w3.org/2000/svg" width="512" height="512">
<path d="M0 0 C0.90045044 -0.00705963 1.80090088 -0.01411926 2.7286377 -0.02139282 C40.61129321 -0.25101186 40.61129321 -0.25101186 57.20703125 3.203125 C58.21668945 3.41243652 59.22634766 3.62174805 60.26660156 3.83740234 C103.43397758 13.05958292 143.15432103 31.68521851 176.20703125 61.203125 C177.07328125 61.95980469 177.93953125 62.71648437 178.83203125 63.49609375 C188.84386636 72.33466694 197.96881248 81.68931433 206.20703125 92.203125 C206.985625 93.16476563 207.76421875 94.12640625 208.56640625 95.1171875 C224.87722319 115.63557187 237.13982379 138.67550647 246.20703125 163.203125 C246.89732422 165.04197266 246.89732422 165.04197266 247.6015625 166.91796875 C261.46396268 206.0407426 265.67855593 252.37822846 257.20703125 293.203125 C256.90104004 294.69368408 256.90104004 294.69368408 256.58886719 296.21435547 C242.51250897 362.77483535 204.09457829 420.03311569 147.23681641 457.50146484 C142.97655694 460.21784308 138.61596235 462.73729689 134.20703125 465.203125 C133.50562012 465.60096191 132.80420898 465.99879883 132.08154297 466.40869141 C99.6789347 484.65696322 61.77676934 496.20999654 24.4140625 496.40625 C23.06338684 496.41683945 23.06338684 496.41683945 21.6854248 496.42764282 C-16.14864981 496.6569674 -16.14864981 496.6569674 -32.79296875 493.203125 C-34.28352783 492.89713379 -34.28352783 492.89713379 -35.80419922 492.58496094 C-102.29810922 478.52268106 -159.75561962 440.10251905 -197.10742188 383.20068359 C-199.80859884 378.94578085 -202.3224062 374.59485547 -204.79296875 370.203125 C-205.15310059 369.57712402 -205.51323242 368.95112305 -205.88427734 368.30615234 C-224.38936501 335.98545493 -235.69710889 297.67901619 -236.03125 260.33203125 C-236.04104385 259.42023102 -236.05083771 258.50843079 -236.06092834 257.56900024 C-236.23260511 237.44104818 -236.06932869 217.96420382 -231.79296875 198.203125 C-231.57866211 197.18605469 -231.36435547 196.16898438 -231.14355469 195.12109375 C-219.34087668 140.48861041 -187.89040522 87.09950768 -142.79296875 53.203125 C-142.1676123 52.72842773 -141.54225586 52.25373047 -140.89794922 51.76464844 C-100.55314472 21.29033548 -51.19282374 0.26889831 0 0 Z M-154.79296875 87.203125 C-157.24768492 89.7778273 -159.51688472 92.4708431 -161.79296875 95.203125 C-162.57671875 96.07582031 -163.36046875 96.94851562 -164.16796875 97.84765625 C-185.41437347 121.68470065 -200.29540043 150.88071034 -209.79296875 181.203125 C-210.18452148 182.43820801 -210.18452148 182.43820801 -210.58398438 183.69824219 C-212.27028398 189.14576262 -213.6246387 194.62264341 -214.79296875 200.203125 C-214.98761719 201.11497559 -215.18226563 202.02682617 -215.3828125 202.96630859 C-227.30821814 261.55083812 -214.85344775 324.74063288 -182.1875 374.66796875 C-170.68821583 391.81732407 -156.71094177 408.95709745 -140.79296875 422.203125 C-139.43171875 423.41355469 -139.43171875 423.41355469 -138.04296875 424.6484375 C-124.68099323 436.45554938 -109.57222211 445.96218382 -93.79296875 454.203125 C-93.09719727 454.57002441 -92.40142578 454.93692383 -91.68457031 455.31494141 C-66.25900895 468.54380249 -37.39179377 476.93378632 -8.79296875 479.203125 C-7.57383789 479.30367188 -7.57383789 479.30367188 -6.33007812 479.40625 C45.41618468 483.37791888 100.97172851 470.18411054 143.20703125 439.203125 C144.17125 438.50960938 145.13546875 437.81609375 146.12890625 437.1015625 C153.79366835 431.48206075 161.01458584 425.40448541 168.20703125 419.203125 C168.98304688 418.55214844 169.7590625 417.90117187 170.55859375 417.23046875 C174.53561384 413.85998261 178.02291407 410.31038705 181.38671875 406.328125 C182.60795588 404.90247479 183.86432225 403.50623815 185.15234375 402.140625 C198.5832415 387.8671986 209.08648099 371.4796159 218.20703125 354.203125 C218.61791992 353.4306543 219.02880859 352.65818359 219.45214844 351.86230469 C236.11078745 320.06943634 243.6619614 284.58145361 243.58203125 248.890625 C243.58148743 247.97236938 243.5809436 247.05411377 243.5803833 246.10803223 C243.4080745 182.55227535 216.88675808 126.49316434 173.20703125 81.203125 C170.63232895 78.74840883 167.93931315 76.47920903 165.20703125 74.203125 C164.33433594 73.419375 163.46164062 72.635625 162.5625 71.828125 C87.56480078 4.98126917 -28.54243962 -0.76385684 -154.79296875 87.203125 Z " fill="#000000" transform="translate(243.79296875,7.796875)"/>
<path d="M0 0 C1.74805372 0.03562042 1.74805372 0.03562042 3.53142166 0.07196045 C11.42121274 0.24456169 19.29587404 0.55624881 27.17578125 0.984375 C28.21421928 1.03598534 29.25265732 1.08759567 30.32256317 1.14076996 C33.2626798 1.30186993 36.19463803 1.51176003 39.13012695 1.74121094 C39.98452645 1.78662521 40.83892595 1.83203949 41.71921635 1.87882996 C48.51344794 2.51058361 52.02638497 5.44178343 56.6875 10.25 C57.77315658 11.30499635 58.85958528 12.35919961 59.94726562 13.41210938 C60.99858672 14.47018502 62.04736108 15.53079641 63.09375 16.59375 C63.94725037 17.4529303 63.94725037 17.4529303 64.81799316 18.32946777 C67.21182686 20.73939282 69.59954243 23.15534478 71.98779297 25.57080078 C78.37809779 32.02736251 84.75641353 38.36783166 91.6875 44.25 C103.31422282 54.77986217 103.31422282 54.77986217 103.6875 61.25 C102.67258843 64.57193524 101.62868882 66.63760528 98.67407227 68.56005859 C96.16955804 69.82186714 93.64136379 70.96079422 91.0625 72.0625 C89.31975974 72.83860372 87.57754284 73.61588408 85.8359375 74.39453125 C85.06427246 74.72815674 84.29260742 75.06178223 83.49755859 75.40551758 C81.70929261 76.11426296 81.70929261 76.11426296 80.6875 77.25 C81.8940625 77.930625 81.8940625 77.930625 83.125 78.625 C85.6875 80.25 85.6875 80.25 86.6875 82.25 C86.80102607 84.66970022 86.85528962 87.06131481 86.86450195 89.48193359 C86.87107315 90.22682541 86.87764435 90.97171722 86.88441467 91.73918152 C86.90415657 94.20893449 86.91581138 96.67862666 86.92578125 99.1484375 C86.92985678 99.99111805 86.9339323 100.8337986 86.93813133 101.70201492 C86.95899456 106.16104132 86.97329592 110.6200369 86.98266602 115.07910156 C86.99373905 119.68843134 87.02814821 124.29727949 87.06783772 128.90643883 C87.09395949 132.44775298 87.10235381 135.98895152 87.10594749 139.53035355 C87.11082394 141.22964358 87.12246799 142.9289281 87.14098549 144.62812424 C87.16528652 147.00556587 87.16442923 149.38175002 87.1574707 151.75927734 C87.17668579 152.81300285 87.17668579 152.81300285 87.19628906 153.88801575 C87.16162148 157.13568185 86.86615872 158.99240626 84.99809265 161.68582153 C82.18721874 163.58867033 80.62584989 163.75633538 77.24804688 163.76757812 C76.16011841 163.78018677 75.07218994 163.79279541 73.95129395 163.80578613 C72.19649719 163.79364075 72.19649719 163.79364075 70.40625 163.78125 C68.59779602 163.78699036 68.59779602 163.78699036 66.75280762 163.79284668 C64.20417445 163.79556826 61.65551346 163.78819005 59.10693359 163.77148438 C55.20216698 163.7500804 51.29924052 163.77128003 47.39453125 163.796875 C44.91926677 163.79423177 42.44400343 163.7891069 39.96875 163.78125 C38.21395325 163.79339539 38.21395325 163.79339539 36.42370605 163.80578613 C35.33577759 163.79317749 34.24784912 163.78056885 33.12695312 163.76757812 C32.1708313 163.76439575 31.21470947 163.76121338 30.22961426 163.75793457 C26.91099644 163.09484844 25.72041322 161.91579645 23.6875 159.25 C23.33897421 156.22419652 23.21969411 153.56422239 23.296875 150.546875 C23.30090332 149.8038916 23.30493164 149.0609082 23.30908203 148.29541016 C23.32995077 145.53002087 23.38579666 142.76498466 23.4375 140 C23.52 133.8125 23.6025 127.625 23.6875 121.25 C7.5175 121.25 -8.6525 121.25 -25.3125 121.25 C-25.27331304 129.26614958 -25.27331304 129.26614958 -25.22241211 137.28222656 C-25.20894815 142.81200628 -25.27851554 148.33657364 -25.56640625 153.859375 C-25.61224854 154.80264648 -25.65809082 155.74591797 -25.70532227 156.71777344 C-26.49342493 160.004545 -27.71258083 161.12278868 -30.3125 163.25 C-32.77868652 163.75793457 -32.77868652 163.75793457 -35.56835938 163.76757812 C-37.14018982 163.78649109 -37.14018982 163.78649109 -38.74377441 163.80578613 C-39.86989136 163.79768921 -40.9960083 163.78959229 -42.15625 163.78125 C-43.89811584 163.78699036 -43.89811584 163.78699036 -45.6751709 163.79284668 C-48.12964749 163.79556792 -50.58415298 163.78819205 -53.03857422 163.77148438 C-56.79850841 163.75007965 -60.55653159 163.77128088 -64.31640625 163.796875 C-66.70052506 163.79423176 -69.08464267 163.78910688 -71.46875 163.78125 C-72.59486694 163.78934692 -73.72098389 163.79744385 -74.88122559 163.80578613 C-76.45305603 163.78687317 -76.45305603 163.78687317 -78.05664062 163.76757812 C-78.97723267 163.76439575 -79.89782471 163.76121338 -80.84631348 163.75793457 C-84.22052061 163.06298452 -85.33818434 162.06737879 -87.3125 159.25 C-87.71263444 156.62947469 -87.8704414 154.42588605 -87.84594727 151.80688477 C-87.85456284 151.06330719 -87.86317841 150.31972961 -87.87205505 149.55361938 C-87.89473071 147.09919274 -87.88797349 144.6459065 -87.87890625 142.19140625 C-87.88414147 140.48273886 -87.89041757 138.77407437 -87.89768982 137.06541443 C-87.90809716 133.48512164 -87.90352843 129.9052262 -87.88891602 126.32495117 C-87.87173435 121.74019222 -87.89521311 117.15668721 -87.93040562 112.57206821 C-87.95238388 109.04351012 -87.95093707 105.51525182 -87.9426403 101.98664665 C-87.94182088 100.29657555 -87.94868271 98.60648242 -87.96341133 96.9164753 C-87.98086479 94.55104033 -87.96631126 92.18785488 -87.94360352 89.82250977 C-87.95529572 89.12676346 -87.96698792 88.43101715 -87.97903442 87.71418762 C-87.90198263 83.7624396 -87.38416975 82.33391379 -84.77305603 79.27671814 C-83.96107254 78.60790115 -83.14908905 77.93908417 -82.3125 77.25 C-83.25101807 76.81917114 -83.25101807 76.81917114 -84.20849609 76.37963867 C-87.03896209 75.07434201 -89.86321394 73.75611148 -92.6875 72.4375 C-94.16476563 71.75977539 -94.16476563 71.75977539 -95.671875 71.06835938 C-96.61289063 70.62685547 -97.55390625 70.18535156 -98.5234375 69.73046875 C-99.39274902 69.32723389 -100.26206055 68.92399902 -101.15771484 68.50854492 C-103.3125 67.25 -103.3125 67.25 -105.3125 64.25 C-105.79393883 61.09390099 -106.02986621 59.27435537 -105.3125 56.25 C-103.97035217 54.45239258 -103.97035217 54.45239258 -102.21118164 52.64453125 C-99.46012733 49.65030203 -97.17568726 46.64978092 -95.00561523 43.2109375 C-70.64031311 5.07791274 -44.1098413 -1.04745456 0 0 Z M-69.93338013 43.10342407 C-72.43865644 46.41685196 -75.102154 49.51393833 -77.88035583 52.59757996 C-79.45605784 54.41563824 -80.88914282 56.31118755 -82.3125 58.25 C-73.75188066 62.53030967 -63.74628898 62.74129224 -54.59765625 60.23046875 C-50.35749746 58.62280259 -46.36707403 56.86349197 -42.4453125 54.58203125 C-37.82836339 52.61896436 -33.86161059 52.36594552 -29.16259766 53.99560547 C-26.93848499 54.98704127 -24.78285816 56.05939721 -22.625 57.1875 C-12.2398305 62.47599001 -3.2596627 63.94213851 8.1875 60.5625 C12.44593351 59.15479509 16.41340983 57.47270342 20.4375 55.5 C25.44864812 53.19602385 29.23057313 51.91259886 34.6875 53.25 C37.89778679 54.589644 41.01815273 55.98998047 44.10839844 57.58300781 C54.55553604 62.94294042 64.49019262 63.59978934 75.65625 60.1015625 C77.86267527 59.32731173 77.86267527 59.32731173 79.6875 57.25 C75.70724213 53.24482718 71.72356133 49.24310045 67.73681641 45.24438477 C66.38400645 43.88657873 65.03209934 42.52787249 63.68115234 41.16821289 C54.16783505 31.51780261 54.16783505 31.51780261 44.10546875 22.45141602 C42.6875 21.25 42.6875 21.25 40.6875 19.25 C38.09527201 18.92072184 35.59847217 18.71605863 32.99438477 18.59448242 C32.19865555 18.55082047 31.40292633 18.50715851 30.58308411 18.46217346 C23.15455053 18.0783757 15.71928886 17.85931004 8.28314304 17.68680859 C3.3007923 17.56941131 -1.66728923 17.40210747 -6.64233398 17.10327148 C-35.83950565 15.39287437 -51.94201897 19.20727068 -69.93338013 43.10342407 Z M-45.23046875 73.9609375 C-52.04894643 76.81277227 -58.50879659 77.58951322 -65.8125 77.875 C-66.63492188 77.91367187 -67.45734375 77.95234375 -68.3046875 77.9921875 C-70.3069701 78.08531692 -72.30970262 78.16868985 -74.3125 78.25 C-73.82641769 78.94212082 -73.34033539 79.63424164 -72.83952332 80.34733582 C-71.05789079 83.73397758 -70.91769707 85.88301675 -70.88012695 89.69262695 C-70.86033279 90.97357742 -70.84053864 92.25452789 -70.82014465 93.57429504 C-70.8133759 94.96228895 -70.80692892 96.35028446 -70.80078125 97.73828125 C-70.78392617 99.16604654 -70.7657748 100.59379706 -70.74638367 102.02153015 C-70.69896703 105.76807033 -70.66910413 109.51455064 -70.64294434 113.2612915 C-70.60784296 117.76274486 -70.55085408 122.26396835 -70.49755096 126.7652359 C-70.41913466 133.59346111 -70.36845642 140.42138744 -70.3125 147.25 C-61.0725 147.25 -51.8325 147.25 -42.3125 147.25 C-42.29832031 144.63707031 -42.28414063 142.02414062 -42.26953125 139.33203125 C-42.23889209 136.79340814 -42.19980844 134.25504524 -42.15991211 131.71655273 C-42.13675636 129.95623009 -42.12234206 128.19576939 -42.11694336 126.43530273 C-42.10763558 123.90000621 -42.06660952 121.36687372 -42.01953125 118.83203125 C-42.0234639 118.04850784 -42.02739655 117.26498444 -42.03144836 116.4577179 C-42.00198372 115.34713264 -42.00198372 115.34713264 -41.97192383 114.21411133 C-41.96526199 113.56791336 -41.95860016 112.92171539 -41.95173645 112.25593567 C-40.89114494 108.92778012 -39.01555737 107.38944994 -36.3125 105.25 C-33.04943848 104.61508179 -33.04943848 104.61508179 -29.30664062 104.60302734 C-28.62143845 104.59426575 -27.93623627 104.58550415 -27.23027039 104.57647705 C-24.97577717 104.55455339 -22.7232615 104.56900778 -20.46875 104.5859375 C-18.89603297 104.58256727 -17.32331849 104.57771292 -15.75061035 104.57144165 C-12.45865009 104.56407996 -9.16736938 104.57475213 -5.87548828 104.59814453 C-1.66172446 104.6266331 2.55044709 104.61022517 6.76415253 104.58028221 C10.01051774 104.56218948 13.2565072 104.56797605 16.50288391 104.58092117 C18.05617971 104.58424979 19.60950993 104.58018721 21.1627655 104.56852341 C23.33663904 104.55578057 25.50795688 104.57523271 27.68164062 104.60302734 C28.91676392 104.60700531 30.15188721 104.61098328 31.42443848 104.61508179 C35.61137576 105.4297654 37.09880051 106.91795905 39.6875 110.25 C40.32673645 112.25593567 40.32673645 112.25593567 40.34692383 114.21411133 C40.36656693 114.9545015 40.38621002 115.69489166 40.40644836 116.4577179 C40.40251572 117.2412413 40.39858307 118.02476471 40.39453125 118.83203125 C40.40965256 119.64621017 40.42477386 120.4603891 40.44035339 121.29924011 C40.48317437 123.88727636 40.49206247 126.47414505 40.5 129.0625 C40.52314883 130.82229654 40.54851498 132.58206541 40.57617188 134.34179688 C40.64312667 138.64516404 40.66413949 142.94529472 40.6875 147.25 C50.2575 147.25 59.8275 147.25 69.6875 147.25 C69.74808594 142.67640625 69.80867187 138.1028125 69.87109375 133.390625 C69.91159147 130.49217816 69.95236642 127.59374054 69.99414062 124.6953125 C70.06041126 120.09540967 70.12565832 115.49550835 70.18481445 110.89550781 C70.2325746 107.18665809 70.28492136 103.47789881 70.34044075 99.76915741 C70.36081159 98.3546143 70.37953325 96.94004644 70.39657402 95.52545929 C70.42073472 93.54328191 70.45131723 91.56118596 70.48217773 89.57910156 C70.49772202 88.45103088 70.5132663 87.32296021 70.52928162 86.16070557 C70.66480532 83.66750849 70.82857179 81.58886071 71.6875 79.25 C72.3475 78.92 73.0075 78.59 73.6875 78.25 C72.57632813 78.27320313 71.46515625 78.29640625 70.3203125 78.3203125 C58.04010373 78.50558023 48.28270418 77.33260229 37.03857422 72.19482422 C30.50973647 69.34811896 26.04670926 70.97656739 19.765625 73.421875 C19.07984375 73.69515625 18.3940625 73.9684375 17.6875 74.25 C3.30887088 79.97982965 -12.04552507 80.04810339 -26.39453125 73.9375 C-28.28722508 73.06433063 -30.16917293 72.16716281 -32.03515625 71.23828125 C-37.11646214 69.03318624 -40.6327642 71.71141682 -45.23046875 73.9609375 Z " fill="#000000" transform="translate(334.3125,252.75)"/>
<path d="M0 0 C0.69717404 -0.00367669 1.39434808 -0.00735338 2.11264861 -0.01114148 C4.46024843 -0.02219785 6.80780403 -0.02602542 9.15542603 -0.02983093 C10.83394004 -0.03609402 12.51245266 -0.04274068 14.19096375 -0.04974365 C18.75914519 -0.06716566 23.32731615 -0.07770829 27.89552259 -0.08594918 C30.74758684 -0.09109591 33.59964781 -0.09717173 36.45170975 -0.10346031 C45.3695071 -0.12251419 54.28729615 -0.13674592 63.20510995 -0.14507228 C73.5100591 -0.15485191 83.81479385 -0.18118948 94.11966741 -0.22157317 C102.07809268 -0.25169477 110.03645635 -0.26653731 117.99493754 -0.26985329 C122.75148624 -0.27220796 127.50780595 -0.28122251 132.26429367 -0.30631447 C136.73767299 -0.32953169 141.21067152 -0.3338542 145.68409538 -0.32355309 C147.32723822 -0.32305609 148.97039941 -0.32942458 150.61348534 -0.34310913 C152.85451907 -0.36073166 155.09417181 -0.35377116 157.33520508 -0.34057617 C158.58993307 -0.34296453 159.84466106 -0.34535288 161.13741112 -0.34781361 C164.29458618 0.14717102 164.29458618 0.14717102 166.69780159 1.73167133 C168.88389386 5.03863286 168.79789442 7.32870372 168.80252075 11.28291321 C168.8118807 12.36186419 168.8118807 12.36186419 168.82142973 13.46261215 C168.83738763 15.87342333 168.82474535 18.28322731 168.81216431 20.69404602 C168.81758421 22.42212006 168.82470613 24.15018948 168.83340454 25.87825012 C168.85165655 30.572462 168.84456265 35.26632266 168.8318882 39.96054077 C168.82177025 44.87009131 168.83115052 49.77961151 168.83743286 54.68916321 C168.84471278 62.93433539 168.83511252 71.17936433 168.81607056 79.42451477 C168.79430116 88.96084447 168.80135229 98.49683212 168.82337618 108.03315353 C168.84152036 116.21669826 168.84409331 124.40013993 168.8336215 132.58369827 C168.82738117 137.47319904 168.82656576 142.36253895 168.83976746 147.25202942 C168.85131106 151.84860264 168.84332762 156.44473431 168.82019043 161.04125977 C168.81489535 162.72953559 168.81643077 164.41784848 168.82524109 166.10610962 C168.83614919 168.40838658 168.82249231 170.70924278 168.80252075 173.01142883 C168.8002586 174.94493195 168.8002586 174.94493195 168.79795074 176.91749573 C168.20977817 180.69131407 167.29868506 181.86929966 164.29458618 184.14717102 C162.29458618 184.67842102 162.29458618 184.67842102 160.29458618 184.64717102 C159.30458618 184.66263977 159.30458618 184.66263977 158.29458618 184.67842102 C155.33285687 183.89171167 154.19710911 182.52997907 152.29458618 180.14717102 C151.80239487 177.09373093 151.80239487 177.09373093 151.81356812 173.44007874 C151.81015042 172.76695845 151.80673272 172.09383816 151.80321145 171.40032029 C151.79662526 169.14590691 151.81861878 166.89268553 151.84048462 164.63838196 C151.84161295 163.02204924 151.84097952 161.40571446 151.8387146 159.78938293 C151.83756594 155.40115066 151.86109963 151.01335486 151.88901043 146.62522411 C151.91399888 142.03948359 151.91636406 137.45373329 151.92111206 132.86793518 C151.93354936 124.1839766 151.96638117 115.50021921 152.00651002 106.81634927 C152.05955973 95.08193592 152.0811671 83.34746764 152.10451889 71.61296463 C152.14214205 53.12421603 152.22182777 34.63589202 152.29458618 16.14717102 C103.78458618 16.14717102 55.27458618 16.14717102 5.29458618 16.14717102 C5.78958618 18.12717102 5.78958618 18.12717102 6.29458618 20.14717102 C6.3899291 21.61017025 6.43769104 23.07672273 6.44848633 24.54278564 C6.45708679 25.41613052 6.46568726 26.2894754 6.47454834 27.18928528 C6.47880829 28.13952576 6.48306824 29.08976624 6.48745728 30.06880188 C6.49972351 31.57918785 6.49972351 31.57918785 6.51223755 33.12008667 C6.53704269 36.45072335 6.55359178 39.78131766 6.56802368 43.11201477 C6.57334736 44.24949221 6.57867104 45.38696964 6.58415604 46.55891609 C6.61086155 52.57522533 6.63024807 58.59151396 6.64468384 64.60786438 C6.65804531 69.59079758 6.68594279 74.57332344 6.72671509 79.55610657 C6.77593507 85.57133372 6.8007913 91.58619023 6.80791092 97.60161018 C6.81463625 99.89458322 6.82989132 102.18754758 6.85380173 104.48040581 C6.88533428 107.68609437 6.88550797 110.89034343 6.87808228 114.09614563 C6.89448761 115.04436188 6.91089294 115.99257812 6.92779541 116.9695282 C6.88629918 121.34022147 6.70328123 123.54012304 4.2124176 127.23988342 C0.54659908 129.63610486 -1.60943917 129.75249032 -5.97421265 129.71479797 C-7.04332382 129.71589317 -7.04332382 129.71589317 -8.1340332 129.7170105 C-10.47762561 129.71354148 -12.81920224 129.67471809 -15.16244507 129.63545227 C-16.79196588 129.62612158 -18.42150077 129.61900667 -20.05104065 129.61401367 C-24.33067861 129.59496371 -28.60946205 129.54588119 -32.88876343 129.49049377 C-37.25916993 129.43925746 -41.62971513 129.41649034 -46.00033569 129.39131165 C-54.56908631 129.33775959 -63.13714363 129.25247222 -71.70541382 129.14717102 C-71.69653137 130.27834351 -71.68764893 131.40951599 -71.67849731 132.57496643 C-71.59745818 143.22815315 -71.53747082 153.88127744 -71.49816513 164.5347023 C-71.47727839 170.0119383 -71.44894062 175.48892574 -71.40365601 180.96601868 C-71.36023745 186.25040382 -71.3362849 191.53454969 -71.32590485 196.81909943 C-71.31850633 198.83657855 -71.30405895 200.85404438 -71.28249359 202.87142181 C-71.25351281 205.69442178 -71.2494556 208.51642937 -71.25131226 211.33955383 C-71.2297406 212.59435799 -71.2297406 212.59435799 -71.20773315 213.87451172 C-71.23395168 217.5516596 -71.35626904 219.68541768 -73.60879517 222.66444397 C-75.87688747 224.26843705 -76.95775522 224.69010319 -79.70541382 224.64717102 C-80.36541382 224.65748352 -81.02541382 224.66779602 -81.70541382 224.67842102 C-84.80088558 223.85618633 -85.79068908 222.74371934 -87.70541382 220.14717102 C-88.32070212 216.84157618 -88.26185973 213.56406578 -88.23886108 210.20967102 C-88.24747665 209.20114075 -88.25609222 208.19261047 -88.26496887 207.15351868 C-88.28768297 203.81780886 -88.28088006 200.48293537 -88.27182007 197.14717102 C-88.277053 194.83076222 -88.28332825 192.51435556 -88.29060364 190.19795227 C-88.30101777 185.34238155 -88.29643126 180.4871037 -88.28182983 175.63154602 C-88.26463575 169.4034212 -88.28814067 163.17621834 -88.32331944 156.94819641 C-88.3452589 152.16468673 -88.34386034 147.38139886 -88.33555412 142.59785461 C-88.33473281 140.30129485 -88.34163033 138.00471908 -88.35632515 135.70820618 C-88.37370774 132.49978105 -88.35927993 129.29302824 -88.33651733 126.08467102 C-88.34820953 125.1328595 -88.35990173 124.18104797 -88.37194824 123.20039368 C-88.28023286 116.859952 -88.28023286 116.859952 -85.61453247 113.55445862 C-82.02019251 111.81569487 -79.52074351 111.66510216 -75.52841187 111.69306946 C-74.82542465 111.69248535 -74.12243744 111.69190125 -73.39814758 111.69129944 C-71.08729721 111.69407395 -68.77775602 111.72513312 -66.46713257 111.75654602 C-64.86002812 111.76401073 -63.25291455 111.76970258 -61.64579773 111.7736969 C-57.42548282 111.78893529 -53.20572266 111.82820106 -48.98562622 111.87251282 C-44.67550154 111.91350461 -40.36528681 111.93171622 -36.05502319 111.95185852 C-27.60489945 111.99469756 -19.15522573 112.06292649 -10.70541382 112.14717102 C-10.73419868 110.19398453 -10.73419868 110.19398453 -10.76356506 108.20133972 C-10.94240685 95.93012358 -11.10510574 83.65878545 -11.25200176 71.38714409 C-11.32804137 65.07816823 -11.40976692 58.76937284 -11.50448608 52.46064758 C-11.59568589 46.37239518 -11.67195078 40.28412204 -11.73786354 34.1955452 C-11.76563488 31.8726669 -11.79878743 29.5498465 -11.83740807 27.22712326 C-11.89058398 23.97373673 -11.92462283 20.72067008 -11.95419312 17.46699524 C-11.98439796 16.0266114 -11.98439796 16.0266114 -12.01521301 14.55712891 C-12.04035188 9.33187329 -11.69883668 5.64350632 -8.70541382 1.14717102 C-5.79609313 -0.30748932 -3.25098014 0.01107918 0 0 Z " fill="#000000" transform="translate(183.70541381835938,63.85282897949219)"/>
<path d="M0 0 C3.49984537 1.52127819 6.65483677 3.46122108 9.875 5.5 C10.8131958 6.07443848 11.7513916 6.64887695 12.71801758 7.24072266 C14.74565416 8.48510137 16.76836448 9.73753519 18.78662109 10.99707031 C22.12357582 13.07702599 25.4755735 15.13145261 28.83203125 17.1796875 C35.23723496 21.09440473 41.62812354 25.03124909 48 29 C49.04881348 29.64743164 50.09762695 30.29486328 51.17822266 30.96191406 C52.17772949 31.58549805 53.17723633 32.20908203 54.20703125 32.8515625 C55.10526611 33.40924316 56.00350098 33.96692383 56.92895508 34.54150391 C59 36 59 36 60 38 C60.09980464 39.35919284 60.13935505 40.72307719 60.14717102 42.08590698 C60.15790398 43.36872559 60.15790398 43.36872559 60.16885376 44.67745972 C60.17154266 45.61776031 60.17423157 46.55806091 60.17700195 47.52685547 C60.18357315 48.51558655 60.19014435 49.50431763 60.19691467 50.52301025 C60.21667272 53.80440337 60.22831477 57.08575072 60.23828125 60.3671875 C60.24235678 61.48568211 60.2464323 62.60417671 60.25063133 63.75656509 C60.271501 69.6744595 60.28579985 75.59233064 60.29516602 81.51025391 C60.30624301 87.63288379 60.34065549 93.75515149 60.38033772 99.87765312 C60.40643745 104.57704358 60.41485186 109.2763468 60.41844749 113.97580338 C60.42332926 116.23330257 60.43498811 118.49079747 60.45348549 120.74822617 C60.47773928 123.90389785 60.47693711 127.05861983 60.4699707 130.21435547 C60.48918579 131.61873367 60.48918579 131.61873367 60.50878906 133.05148315 C60.45814637 139.32985517 60.45814637 139.32985517 58.23600769 142.58024597 C55.80841276 144.1216484 54.60030504 144.50105676 51.75390625 144.50170898 C50.92624756 144.51108994 50.09858887 144.52047089 49.24584961 144.53013611 C47.91759155 144.51328514 47.91759155 144.51328514 46.5625 144.49609375 C45.1868689 144.4982766 45.1868689 144.4982766 43.78344727 144.50050354 C41.84681009 144.49884546 39.91015962 144.48729434 37.97363281 144.46655273 C35.01049793 144.43760257 32.04915292 144.44594465 29.0859375 144.45898438 C27.20311631 144.45274662 25.32030077 144.44435539 23.4375 144.43359375 C22.55199463 144.43652939 21.66648926 144.43946503 20.75415039 144.44248962 C14.6585749 144.34907269 14.6585749 144.34907269 11.47265625 142.66040039 C9.05877907 139.93878589 8.87576427 137.37661132 8.88647461 133.89575195 C8.88658791 132.6648156 8.88658791 132.6648156 8.88670349 131.40901184 C8.89186478 130.52767075 8.89702606 129.64632965 8.90234375 128.73828125 C8.9037587 127.83248825 8.90517365 126.92669525 8.90663147 125.99345398 C8.91222999 123.09976909 8.92478219 120.20616151 8.9375 117.3125 C8.94251519 115.35091258 8.94707807 113.38932394 8.95117188 111.42773438 C8.96134813 106.61843582 8.98092387 101.80930447 9 97 C-0.57 97 -10.14 97 -20 97 C-19.95359375 99.97386719 -19.9071875 102.94773437 -19.859375 106.01171875 C-19.828164 108.89768772 -19.80388499 111.78363777 -19.78027344 114.66967773 C-19.76018009 116.67269328 -19.73290035 118.67565032 -19.69824219 120.6784668 C-19.64962389 123.56053108 -19.62700848 126.44181866 -19.609375 129.32421875 C-19.58872986 130.21711105 -19.56808472 131.11000336 -19.54681396 132.029953 C-19.54540899 135.93853234 -19.76093218 138.49870817 -21.46191406 142.06542969 C-25.20832414 144.92100428 -28.40299563 144.70131193 -33 144.62890625 C-33.87269531 144.63131821 -34.74539062 144.63373016 -35.64453125 144.63621521 C-37.48702546 144.63523704 -39.32954916 144.62185055 -41.171875 144.59692383 C-43.99059984 144.56261442 -46.80618937 144.57626475 -49.625 144.59570312 C-51.41668 144.5888045 -53.20835191 144.57913196 -55 144.56640625 C-55.84175781 144.57136612 -56.68351562 144.57632599 -57.55078125 144.58143616 C-58.33839844 144.56559982 -59.12601563 144.54976349 -59.9375 144.53344727 C-60.97197266 144.5241494 -60.97197266 144.5241494 -62.02734375 144.5146637 C-65.1406543 143.70240463 -66.16151246 142.66075183 -68 140 C-68.60102982 136.75715408 -68.55649814 133.5523692 -68.53344727 130.26196289 C-68.54206284 129.27454605 -68.55067841 128.28712921 -68.55955505 127.26979065 C-68.58226889 124.00381298 -68.57546573 120.73868963 -68.56640625 117.47265625 C-68.57163961 115.20348352 -68.57791503 112.93431298 -68.58518982 110.66514587 C-68.59560422 105.90792611 -68.59101772 101.15100528 -68.57641602 96.39379883 C-68.55923168 90.29580129 -68.58271458 84.19874626 -68.61790562 78.10085392 C-68.63986132 73.41423797 -68.6384424 68.72784813 -68.6301403 64.04119682 C-68.6293197 61.79291183 -68.63620389 59.54461041 -68.65091133 57.29637337 C-68.66832163 54.15280285 -68.65384251 51.01093354 -68.63110352 47.86743164 C-68.64279572 46.93791687 -68.65448792 46.0084021 -68.66653442 45.05072021 C-68.5999095 40.52619077 -68.49748263 38.62596491 -65.59944153 34.97946167 C-63.28079209 33.21382176 -61.03468338 31.60839188 -58.5078125 30.16015625 C-57.21955566 29.41197632 -57.21955566 29.41197632 -55.90527344 28.64868164 C-54.9877832 28.1252417 -54.07029297 27.60180176 -53.125 27.0625 C-51.1527984 25.91812588 -49.18147306 24.77224056 -47.2109375 23.625 C-46.19225586 23.03332031 -45.17357422 22.44164062 -44.12402344 21.83203125 C-38.96140007 18.8044972 -33.85561171 15.68492291 -28.75 12.5625 C-23.30463385 9.23382938 -23.30463385 9.23382938 -20.59570312 7.59814453 C-18.83964617 6.51696048 -17.10398828 5.40204454 -15.38867188 4.25732422 C-10.28827809 0.93584352 -6.15104041 -1.65049479 0 0 Z M-8.875 20.28125 C-9.6518515 20.76609863 -10.428703 21.25094727 -11.22909546 21.75048828 C-13.04644602 22.89793889 -14.85256069 24.06342389 -16.6456604 25.24841309 C-21.89746938 28.66490912 -26.95952001 31.4918084 -32.80224609 33.7734375 C-40.00700879 36.85036103 -47.57922662 40.21149672 -52 47 C-56.65144331 58.7210434 -54.54839965 73.37296003 -53.78527832 85.64715576 C-53.51687635 90.42452678 -53.40007322 95.2055099 -53.26953125 99.98828125 C-52.99247097 109.33653842 -52.53642491 118.66303241 -52 128 C-47.05 128 -42.1 128 -37 128 C-36.9906543 126.71834961 -36.98130859 125.43669922 -36.97167969 124.11621094 C-36.93179939 119.35983558 -36.86604585 114.60410838 -36.79248047 109.84814453 C-36.76425951 107.78996102 -36.74305059 105.7316689 -36.72900391 103.67333984 C-36.7075901 100.71395215 -36.66094779 97.7558718 -36.609375 94.796875 C-36.60814636 93.87694763 -36.60691772 92.95702026 -36.60565186 92.00921631 C-36.58593323 91.1486261 -36.5662146 90.28803589 -36.54589844 89.40136719 C-36.53701599 88.64635925 -36.52813354 87.89135132 -36.51898193 87.11346436 C-35.77306294 84.07583801 -34.46451434 82.88099291 -32 81 C-29.48912048 80.49879456 -29.48912048 80.49879456 -26.63647461 80.49829102 C-25.5653392 80.48891006 -24.4942038 80.47952911 -23.39060974 80.46986389 C-22.23948196 80.48109787 -21.08835419 80.49233185 -19.90234375 80.50390625 C-18.12362633 80.5017234 -18.12362633 80.5017234 -16.30897522 80.49949646 C-13.80320782 80.501156 -11.29743029 80.51272322 -8.79174805 80.53344727 C-4.94861756 80.5624162 -1.10686467 80.5540534 2.73632812 80.54101562 C5.16927756 80.54725239 7.60222263 80.55564284 10.03515625 80.56640625 C11.18830826 80.56347061 12.34146027 80.56053497 13.52955627 80.55751038 C14.59753952 80.57019455 15.66552277 80.58287872 16.76586914 80.59594727 C17.70644669 80.60135025 18.64702423 80.60675323 19.61610413 80.61231995 C22 81 22 81 23.80010986 82.25152588 C25.30127265 84.43901305 25.39451243 85.73696782 25.43237305 88.37963867 C25.45216721 89.26032516 25.47196136 90.14101166 25.49235535 91.04838562 C25.49874527 91.99534805 25.50513519 92.94231049 25.51171875 93.91796875 C25.52966995 94.89034988 25.54762115 95.86273102 25.56611633 96.86457825 C25.62032467 99.97217464 25.65414898 103.07961652 25.6875 106.1875 C25.72066376 108.29364134 25.75515253 110.39976227 25.79101562 112.50585938 C25.87605731 117.67046161 25.94281841 122.83501719 26 128 C31.94 128 37.88 128 44 128 C44.47647483 117.66381229 44.86071872 107.33501865 45.08805561 96.99029255 C45.19723406 92.18523127 45.34488229 87.38812481 45.58422852 82.58764648 C47.49012282 62.62996297 47.49012282 62.62996297 42.09963989 44.08383179 C37.32291162 39.53294046 31.82466352 37.15424207 25.65994263 34.9960022 C21.85754173 33.57221222 18.682222 31.48857432 15.33203125 29.23046875 C13.15894331 27.88266876 10.98576971 26.53500687 8.8125 25.1875 C7.96764038 24.65999146 7.96764038 24.65999146 7.10571289 24.12182617 C5.45455516 23.0914115 3.79961275 22.06706909 2.14453125 21.04296875 C1.19940674 20.45539795 0.25428223 19.86782715 -0.71948242 19.26245117 C-4.34584749 17.25496442 -5.55604787 18.19322792 -8.875 20.28125 Z " fill="#000000" transform="translate(164,272)"/>
<path d="M0 0 C0.87269531 -0.0038269 1.74539062 -0.00765381 2.64453125 -0.01159668 C4.48699092 -0.0143149 6.32948924 -0.00695994 8.171875 0.00976562 C10.99045934 0.03117752 13.80649485 0.00996199 16.625 -0.015625 C18.41667229 -0.01298171 20.20834299 -0.00785669 22 0 C22.84175781 -0.00809692 23.68351562 -0.01619385 24.55078125 -0.02453613 C28.13136419 0.03278396 30.39761762 0.18098442 33.52929688 2.00195312 C35.73374916 5.79314264 35.57275697 9.21617695 35.53125 13.53125 C35.5350769 14.40394531 35.53890381 15.27664062 35.54284668 16.17578125 C35.5455649 18.01824092 35.53820994 19.86073924 35.52148438 21.703125 C35.50007248 24.52170934 35.52128801 27.33774485 35.546875 30.15625 C35.54423171 31.94792229 35.53910669 33.73959299 35.53125 35.53125 C35.53934692 36.37300781 35.54744385 37.21476562 35.55578613 38.08203125 C35.49846604 41.66261419 35.35026558 43.92886762 33.52929688 47.06054688 C29.73810736 49.26499916 26.31507305 49.10400697 22 49.0625 C21.12730469 49.0663269 20.25460938 49.07015381 19.35546875 49.07409668 C17.51300908 49.0768149 15.67051076 49.06945994 13.828125 49.05273438 C11.00954066 49.03132248 8.19350515 49.05253801 5.375 49.078125 C3.58332771 49.07548171 1.79165701 49.07035669 0 49.0625 C-0.84175781 49.07059692 -1.68351563 49.07869385 -2.55078125 49.08703613 C-6.13136419 49.02971604 -8.39761762 48.88151558 -11.52929688 47.06054688 C-13.73374916 43.26935736 -13.57275697 39.84632305 -13.53125 35.53125 C-13.5350769 34.65855469 -13.53890381 33.78585938 -13.54284668 32.88671875 C-13.5455649 31.04425908 -13.53820994 29.20176076 -13.52148438 27.359375 C-13.50007248 24.54079066 -13.52128801 21.72475515 -13.546875 18.90625 C-13.54423171 17.11457771 -13.53910669 15.32290701 -13.53125 13.53125 C-13.53934692 12.68949219 -13.54744385 11.84773437 -13.55578613 10.98046875 C-13.49846604 7.39988581 -13.35026558 5.13363238 -11.52929688 2.00195312 C-7.73810736 -0.20249916 -4.31507305 -0.04150697 0 0 Z M3 16.53125 C3 21.81125 3 27.09125 3 32.53125 C8.28 32.53125 13.56 32.53125 19 32.53125 C19 27.25125 19 21.97125 19 16.53125 C13.72 16.53125 8.44 16.53125 3 16.53125 Z " fill="#000000" transform="translate(141,207.46875)"/>
<path d="M0 0 C0.87269531 -0.0038269 1.74539063 -0.00765381 2.64453125 -0.01159668 C4.48699092 -0.0143149 6.32948924 -0.00695994 8.171875 0.00976562 C10.99045934 0.03117752 13.80649485 0.00996199 16.625 -0.015625 C18.41667229 -0.01298171 20.20834299 -0.00785669 22 0 C22.84175781 -0.00809692 23.68351562 -0.01619385 24.55078125 -0.02453613 C28.13136419 0.03278396 30.39761762 0.18098442 33.52929688 2.00195312 C35.73374916 5.79314264 35.57275697 9.21617695 35.53125 13.53125 C35.5350769 14.40394531 35.53890381 15.27664062 35.54284668 16.17578125 C35.5455649 18.01824092 35.53820994 19.86073924 35.52148438 21.703125 C35.50007248 24.52170934 35.52128801 27.33774485 35.546875 30.15625 C35.54423171 31.94792229 35.53910669 33.73959299 35.53125 35.53125 C35.53934692 36.37300781 35.54744385 37.21476562 35.55578613 38.08203125 C35.49846604 41.66261419 35.35026558 43.92886762 33.52929688 47.06054688 C29.73810736 49.26499916 26.31507305 49.10400697 22 49.0625 C21.12730469 49.0663269 20.25460937 49.07015381 19.35546875 49.07409668 C17.51300908 49.0768149 15.67051076 49.06945994 13.828125 49.05273438 C11.00954066 49.03132248 8.19350515 49.05253801 5.375 49.078125 C3.58332771 49.07548171 1.79165701 49.07035669 0 49.0625 C-0.84175781 49.07059692 -1.68351562 49.07869385 -2.55078125 49.08703613 C-6.13136419 49.02971604 -8.39761762 48.88151558 -11.52929688 47.06054688 C-13.73374916 43.26935736 -13.57275697 39.84632305 -13.53125 35.53125 C-13.5350769 34.65855469 -13.53890381 33.78585938 -13.54284668 32.88671875 C-13.5455649 31.04425908 -13.53820994 29.20176076 -13.52148438 27.359375 C-13.50007248 24.54079066 -13.52128801 21.72475515 -13.546875 18.90625 C-13.54423171 17.11457771 -13.53910669 15.32290701 -13.53125 13.53125 C-13.53934692 12.68949219 -13.54744385 11.84773437 -13.55578613 10.98046875 C-13.49846604 7.39988581 -13.35026558 5.13363238 -11.52929688 2.00195312 C-7.73810736 -0.20249916 -4.31507305 -0.04150697 0 0 Z M3 16.53125 C3 21.81125 3 27.09125 3 32.53125 C8.28 32.53125 13.56 32.53125 19 32.53125 C19 27.25125 19 21.97125 19 16.53125 C13.72 16.53125 8.44 16.53125 3 16.53125 Z " fill="#000000" transform="translate(285,175.46875)"/>
<path d="M0 0 C0.87269531 -0.0038269 1.74539062 -0.00765381 2.64453125 -0.01159668 C4.48699092 -0.0143149 6.32948924 -0.00695994 8.171875 0.00976562 C10.99045934 0.03117752 13.80649485 0.00996199 16.625 -0.015625 C18.41667229 -0.01298171 20.20834299 -0.00785669 22 0 C22.84175781 -0.00809692 23.68351562 -0.01619385 24.55078125 -0.02453613 C28.13136419 0.03278396 30.39761762 0.18098442 33.52929688 2.00195312 C35.73374916 5.79314264 35.57275697 9.21617695 35.53125 13.53125 C35.5350769 14.40394531 35.53890381 15.27664062 35.54284668 16.17578125 C35.5455649 18.01824092 35.53820994 19.86073924 35.52148438 21.703125 C35.50007248 24.52170934 35.52128801 27.33774485 35.546875 30.15625 C35.54423171 31.94792229 35.53910669 33.73959299 35.53125 35.53125 C35.53934692 36.37300781 35.54744385 37.21476562 35.55578613 38.08203125 C35.49846604 41.66261419 35.35026558 43.92886762 33.52929688 47.06054688 C29.73810736 49.26499916 26.31507305 49.10400697 22 49.0625 C21.12730469 49.0663269 20.25460938 49.07015381 19.35546875 49.07409668 C17.51300908 49.0768149 15.67051076 49.06945994 13.828125 49.05273438 C11.00954066 49.03132248 8.19350515 49.05253801 5.375 49.078125 C3.58332771 49.07548171 1.79165701 49.07035669 0 49.0625 C-0.84175781 49.07059692 -1.68351563 49.07869385 -2.55078125 49.08703613 C-6.13136419 49.02971604 -8.39761762 48.88151558 -11.52929688 47.06054688 C-13.73374916 43.26935736 -13.57275697 39.84632305 -13.53125 35.53125 C-13.5350769 34.65855469 -13.53890381 33.78585938 -13.54284668 32.88671875 C-13.5455649 31.04425908 -13.53820994 29.20176076 -13.52148438 27.359375 C-13.50007248 24.54079066 -13.52128801 21.72475515 -13.546875 18.90625 C-13.54423171 17.11457771 -13.53910669 15.32290701 -13.53125 13.53125 C-13.53934692 12.68949219 -13.54744385 11.84773437 -13.55578613 10.98046875 C-13.49846604 7.39988581 -13.35026558 5.13363238 -11.52929688 2.00195312 C-7.73810736 -0.20249916 -4.31507305 -0.04150697 0 0 Z M3 16.53125 C3 21.81125 3 27.09125 3 32.53125 C8.28 32.53125 13.56 32.53125 19 32.53125 C19 27.25125 19 21.97125 19 16.53125 C13.72 16.53125 8.44 16.53125 3 16.53125 Z " fill="#000000" transform="translate(221,175.46875)"/>
<path d="M0 0 C0.87269531 -0.0038269 1.74539063 -0.00765381 2.64453125 -0.01159668 C4.48699092 -0.0143149 6.32948924 -0.00695994 8.171875 0.00976562 C10.99045934 0.03117752 13.80649485 0.00996199 16.625 -0.015625 C18.41667229 -0.01298171 20.20834299 -0.00785669 22 0 C22.84175781 -0.00809692 23.68351562 -0.01619385 24.55078125 -0.02453613 C28.13136419 0.03278396 30.39761762 0.18098442 33.52929688 2.00195312 C35.73374916 5.79314264 35.57275697 9.21617695 35.53125 13.53125 C35.5350769 14.40394531 35.53890381 15.27664062 35.54284668 16.17578125 C35.5455649 18.01824092 35.53820994 19.86073924 35.52148438 21.703125 C35.50007248 24.52170934 35.52128801 27.33774485 35.546875 30.15625 C35.54423171 31.94792229 35.53910669 33.73959299 35.53125 35.53125 C35.53934692 36.37300781 35.54744385 37.21476562 35.55578613 38.08203125 C35.49846604 41.66261419 35.35026558 43.92886762 33.52929688 47.06054688 C29.73810736 49.26499916 26.31507305 49.10400697 22 49.0625 C21.12730469 49.0663269 20.25460937 49.07015381 19.35546875 49.07409668 C17.51300908 49.0768149 15.67051076 49.06945994 13.828125 49.05273438 C11.00954066 49.03132248 8.19350515 49.05253801 5.375 49.078125 C3.58332771 49.07548171 1.79165701 49.07035669 0 49.0625 C-0.84175781 49.07059692 -1.68351562 49.07869385 -2.55078125 49.08703613 C-6.13136419 49.02971604 -8.39761762 48.88151558 -11.52929688 47.06054688 C-13.73374916 43.26935736 -13.57275697 39.84632305 -13.53125 35.53125 C-13.5350769 34.65855469 -13.53890381 33.78585938 -13.54284668 32.88671875 C-13.5455649 31.04425908 -13.53820994 29.20176076 -13.52148438 27.359375 C-13.50007248 24.54079066 -13.52128801 21.72475515 -13.546875 18.90625 C-13.54423171 17.11457771 -13.53910669 15.32290701 -13.53125 13.53125 C-13.53934692 12.68949219 -13.54744385 11.84773438 -13.55578613 10.98046875 C-13.49846604 7.39988581 -13.35026558 5.13363238 -11.52929688 2.00195312 C-7.73810736 -0.20249916 -4.31507305 -0.04150697 0 0 Z M3 16.53125 C3 21.81125 3 27.09125 3 32.53125 C8.28 32.53125 13.56 32.53125 19 32.53125 C19 27.25125 19 21.97125 19 16.53125 C13.72 16.53125 8.44 16.53125 3 16.53125 Z " fill="#000000" transform="translate(285,95.46875)"/>
<path d="M0 0 C0.87269531 -0.0038269 1.74539062 -0.00765381 2.64453125 -0.01159668 C4.48699092 -0.0143149 6.32948924 -0.00695994 8.171875 0.00976562 C10.99045934 0.03117752 13.80649485 0.00996199 16.625 -0.015625 C18.41667229 -0.01298171 20.20834299 -0.00785669 22 0 C22.84175781 -0.00809692 23.68351562 -0.01619385 24.55078125 -0.02453613 C28.13136419 0.03278396 30.39761762 0.18098442 33.52929688 2.00195312 C35.73374916 5.79314264 35.57275697 9.21617695 35.53125 13.53125 C35.5350769 14.40394531 35.53890381 15.27664062 35.54284668 16.17578125 C35.5455649 18.01824092 35.53820994 19.86073924 35.52148438 21.703125 C35.50007248 24.52170934 35.52128801 27.33774485 35.546875 30.15625 C35.54423171 31.94792229 35.53910669 33.73959299 35.53125 35.53125 C35.53934692 36.37300781 35.54744385 37.21476562 35.55578613 38.08203125 C35.49846604 41.66261419 35.35026558 43.92886762 33.52929688 47.06054688 C29.73810736 49.26499916 26.31507305 49.10400697 22 49.0625 C21.12730469 49.0663269 20.25460938 49.07015381 19.35546875 49.07409668 C17.51300908 49.0768149 15.67051076 49.06945994 13.828125 49.05273438 C11.00954066 49.03132248 8.19350515 49.05253801 5.375 49.078125 C3.58332771 49.07548171 1.79165701 49.07035669 0 49.0625 C-0.84175781 49.07059692 -1.68351563 49.07869385 -2.55078125 49.08703613 C-6.13136419 49.02971604 -8.39761762 48.88151558 -11.52929688 47.06054688 C-13.73374916 43.26935736 -13.57275697 39.84632305 -13.53125 35.53125 C-13.5350769 34.65855469 -13.53890381 33.78585938 -13.54284668 32.88671875 C-13.5455649 31.04425908 -13.53820994 29.20176076 -13.52148438 27.359375 C-13.50007248 24.54079066 -13.52128801 21.72475515 -13.546875 18.90625 C-13.54423171 17.11457771 -13.53910669 15.32290701 -13.53125 13.53125 C-13.53934692 12.68949219 -13.54744385 11.84773438 -13.55578613 10.98046875 C-13.49846604 7.39988581 -13.35026558 5.13363238 -11.52929688 2.00195312 C-7.73810736 -0.20249916 -4.31507305 -0.04150697 0 0 Z M3 16.53125 C3 21.81125 3 27.09125 3 32.53125 C8.28 32.53125 13.56 32.53125 19 32.53125 C19 27.25125 19 21.97125 19 16.53125 C13.72 16.53125 8.44 16.53125 3 16.53125 Z " fill="#000000" transform="translate(221,95.46875)"/>
</svg>
